<svg t="1710995382304" class="icon" viewBox="0 0 1024 1024" version="1.1"
    xmlns="http://www.w3.org/2000/svg" p-id="10124" xmlns:xlink="http://www.w3.org/1999/xlink"
    width="200" height="200">
    <path
        d="M256.576 947.2l36.48 12.48 43.2-124.736 128.64 13.376c10.56 0.96 20.16-6.72 21.12-17.28a19.36 19.36 0 0 0-17.28-21.12l-119.456-12.48a422.592 422.592 0 0 1 162.88-206.72l132.576 14.08c10.56 0.96 20.16-6.72 21.12-17.28a19.36 19.36 0 0 0-17.28-21.12l-92.928-9.92a460.064 460.064 0 0 0 128.768-192.96l12.16-34.88a19.136 19.136 0 0 0-11.84-24.64 19.136 19.136 0 0 0-24.64 11.84l-12.16 34.88a422.592 422.592 0 0 1-129.472 186.368l-54.528-112.128a19.36 19.36 0 1 0-34.88 16.96l57.792 118.912a460.48 460.48 0 0 0-169.248 211.008l-41.824-86.08a19.36 19.36 0 1 0-34.88 16.96l58.56 120.416-42.88 124.064z"
        fill="#44911B" p-id="10125"></path>
    <path
        d="M767.296 64c-106.88 52.16-151.68 181.12-99.52 288a215.264 215.264 0 0 0 99.52-288zM505.216 289.6l-57.92-119.04a135.232 135.232 0 0 0-62.4 180.8l57.92 119.04a135.328 135.328 0 0 0 62.4-180.8zM331.456 494.08l-74.24-152.32c-85.76 41.92-121.6 145.28-79.68 231.04l74.24 152.32a173.056 173.056 0 0 0 79.68-231.04zM893.376 495.04l-131.84-13.76c-74.24-8-140.48 46.08-148.48 120.32l131.84 13.76c74.24 7.68 140.8-46.08 148.48-120.32zM619.136 691.2l168.64 17.6a172.896 172.896 0 0 1-190.08 153.92l-168.64-17.6a172.896 172.896 0 0 1 190.08-153.92z"
        fill="#86D72F" p-id="10126"></path>
</svg>