<svg t="1711067320765" class="icon" viewBox="0 0 1024 1024" version="1.1"
    xmlns="http://www.w3.org/2000/svg" p-id="9399" width="200" height="200">
    <path
        d="M0 511.9232a511.91808 511.91808 0 0 0 316.00128 472.96 511.9744 511.9744 0 0 0 391.80288 0 511.86688 511.86688 0 0 0 277.0432-277.05344A512 512 0 0 0 873.8816 149.9392 511.872 511.872 0 0 0 511.8976 0 511.8976 511.8976 0 0 0 0 511.9232z"
        fill="#FFFFFF" p-id="9400"></path>
    <path
        d="M312.85248 772.87424c-26.13248-41.45152-21.17632-84.25472-4.5056-127.50848 2.70336-6.7584 6.30784-13.5168 9.46176-20.2752-1.80224-4.05504-4.5056-7.65952-9.91232-7.65952-32.44032 0-60.37504-12.16512-85.6064-31.5392-20.2752-13.5168-29.73696-31.98976-26.58304-56.32-5.40672-24.7808-6.30784-50.46272-3.15392-75.69408 4.95616-40.5504 13.5168-74.3424 71.63904-86.05696 30.63808-3.15392 58.12224 7.65952 85.6064 18.92352 5.40672 2.2528 10.36288 5.85728 17.57184 7.20896-7.20896-51.8144-14.41792-102.27712 18.47296-147.78368 9.0112-7.65952 18.0224-14.86848 27.0336-22.528 54.51776-32.44032 130.6624-5.40672 150.9376 35.59424 9.46176 18.92352 15.31904 38.74816 17.12128 59.92448 1.80224 19.82464 4.05504 21.17632 21.62688 11.71456 18.92352-9.91232 38.74816-16.22016 59.02336-20.72576 67.13344-13.96736 137.87136 36.0448 146.432 104.07936 0.45056 4.5056 0 9.0112-1.35168 13.06624-1.80224 35.59424-18.47296 63.52896-44.60544 86.50752-6.7584 5.85728-15.31904 9.91232-15.7696 20.2752 34.69312 28.83584 55.41888 64.88064 58.5728 110.83776 5.40672 16.22016-3.15392 31.08864-4.95616 46.85824v-0.45056c-6.7584 15.7696-12.16512 31.98976-23.42912 45.50656-29.2864 36.49536-67.584 41.90208-109.93664 30.63808-44.15488-11.71456-81.1008-36.94592-112.64-69.8368-2.2528-2.2528-4.5056-5.85728-4.95616-9.0112 12.16512 29.2864-26.58304 90.112-76.14464 119.3984-56.77056 34.69312-109.03552 22.97856-159.9488-35.14368z"
        fill="#E98296" p-id="9401"></path>
    <path
        d="M804.864 429.99808c-6.7584-84.25472-85.15584-144.1792-181.57568-102.27712-6.7584 3.15392-13.5168 6.7584-19.82464 9.91232-27.48416 14.41792-26.58304 14.41792-28.38528-18.92352-2.70336-40.5504-17.12128-77.04576-57.22112-93.26592-28.83584-11.71456-60.37504-17.57184-91.46368-4.5056-4.5056 2.2528-9.0112 2.2528-13.5168 3.15392 28.83584-26.13248 84.25472-29.2864 120.75008-7.20896 28.38528 16.67072 50.91328 38.74816 66.68288 67.584 6.7584 12.16512 13.96736 15.7696 28.38528 12.16512 61.72672-15.31904 113.99168 6.7584 160.39936 45.95712 15.31904 12.61568 28.83584 27.48416 41.00096 44.15488 22.97856 31.08864 13.06624 41.90208-21.62688 45.056-1.35168 0.90112-2.70336 0.45056-3.60448-1.80224z"
        fill="#EEDBDF" p-id="9402"></path>
    <path
        d="M312.85248 772.87424c18.0224 10.36288 30.18752 27.93472 49.5616 37.39648 38.2976 18.47296 73.44128 12.61568 108.1344-6.7584 33.792-18.92352 56.77056-47.75936 75.24352-80.65024 8.11008-13.96736 9.46176-27.93472-6.30784-40.5504 22.07744 15.31904 37.84704 35.59424 59.47392 49.11104 39.19872 23.87968 79.29856 44.15488 127.95904 32.89088 27.0336-6.30784 44.15488-23.42912 57.67168-45.95712 5.40672-8.56064 7.20896-19.82464 15.7696-26.58304-5.40672 60.8256-62.62784 98.67264-124.80512 83.80416-44.60544-10.81344-81.1008-34.24256-115.34336-67.13344-18.47296 42.35264-42.8032 77.94688-80.65024 103.17824-63.0784 42.35264-131.56352 19.37408-166.7072-38.74816z"
        fill="#A97B93" p-id="9403"></path>
    <path
        d="M386.29376 246.62016c-8.56064 26.13248-18.92352 50.91328-18.47296 79.74912 0.45056 27.0336 4.95616 52.71552 9.46176 82.45248-36.49536-22.97856-73.44128-36.0448-113.09056-41.00096 20.72576-10.81344 41.00096-1.35168 59.92448 4.05504 16.67072 4.95616 16.67072-0.45056 17.12128-13.5168 0.90112-42.8032 14.86848-80.65024 45.056-111.73888z"
        fill="#EEDBDF" p-id="9404"></path>
    <path
        d="M223.6416 584.0896c27.93472 15.7696 56.32 30.18752 90.112 27.48416 12.61568-0.90112 6.30784 8.11008 4.05504 13.96736-35.59424-1.35168-68.93568-9.91232-94.6176-36.49536-1.35168-1.35168-1.35168-2.2528-0.90112-3.15392 0.45056-1.35168 0.90112-1.80224 1.35168-1.80224z"
        fill="#AA7C94" p-id="9405"></path>
    <path
        d="M804.864 429.99808l4.05504 1.35168c-1.80224 45.95712-27.0336 77.94688-62.17728 103.6288-6.30784-5.85728-8.11008-8.56064 1.35168-15.7696 30.18752-21.62688 52.71552-49.5616 56.77056-89.21088z"
        fill="#AC7E96" p-id="9406"></path>
    <path
        d="M223.6416 584.0896c0 1.35168-0.45056 3.15392-0.45056 4.5056-20.72576-7.20896-30.18752-26.13248-41.45152-41.90208-8.56064-12.61568 3.60448-16.22016 14.41792-17.12128 7.65952 18.92352 7.65952 41.90208 27.48416 54.51776z"
        fill="#EEDBDF" p-id="9407"></path>
    <path
        d="M800.3584 692.224c1.80224-15.31904 3.15392-31.08864 4.95616-46.40768 8.56064 16.67072 1.35168 31.5392-4.95616 46.40768z"
        fill="#B993A7" p-id="9408"></path>
    <path
        d="M484.9664 435.4048c58.12224 3.15392 97.77152 42.8032 89.66144 113.54112-8.11008 35.59424-29.2864 59.02336-64.88064 66.68288-36.49536 7.65952-66.23232-4.95616-87.40864-36.0448-12.16512-17.57184-19.37408-36.94592-18.92352-58.5728-2.2528-2.70336-2.2528-5.85728 0-8.56064 9.46176-41.90208 35.14368-67.584 77.04576-76.5952 1.35168-2.70336 2.70336-3.15392 4.5056-0.45056z"
        fill="#FDEAAB" p-id="9409"></path>
    <path
        d="M403.41504 512v8.56064c-20.2752 0-35.59424-14.41792-54.0672-19.37408-36.0448-9.91232-69.8368-11.264-105.8816 3.60448-1.80224-13.96736 9.0112-16.67072 17.12128-19.37408 38.2976-12.16512 75.24352-3.60448 111.28832 10.81344 10.36288 4.5056 20.72576 10.36288 31.5392 15.7696z"
        fill="#D26B7F" p-id="9410"></path>
    <path
        d="M422.33856 579.584c19.82464 15.31904 37.39648 32.44032 65.78176 31.98976 40.09984 0 64.88064-18.92352 81.1008-53.61664 1.35168-3.15392 3.60448-6.30784 5.40672-9.0112 1.80224 9.0112-2.2528 17.57184-4.05504 26.13248 0.45056 4.05504-1.80224 6.7584-4.5056 9.0112-25.68192 36.49536-60.8256 47.3088-103.17824 36.49536-1.80224 1.80224-3.15392 1.80224-4.05504-0.90112-12.16512-13.96736-32.44032-19.82464-36.49536-40.09984z"
        fill="#98784A" p-id="9411"></path>
    <path
        d="M566.0672 584.0896c0.45056-3.60448 0.90112-7.20896 4.5056-9.0112 59.47392 19.82464 159.04768 85.6064 165.35552 112.18944-51.8144-45.95712-106.33216-82.00192-169.86112-103.17824z"
        fill="#D26C80" p-id="9412"></path>
    <path
        d="M458.38336 619.23328c1.35168 0 2.70336 0.45056 4.05504 0.90112-21.62688 43.70432-42.35264 87.8592-85.15584 115.79392 31.98976-35.14368 54.51776-77.49632 81.1008-116.69504z"
        fill="#D26C7F" p-id="9413"></path>
    <path
        d="M484.9664 435.4048c-1.35168 0-3.15392 0-4.5056 0.45056-0.90112-52.26496-11.71456-102.72768-20.2752-153.64096 23.87968 48.20992 25.23136 100.47488 24.7808 153.1904z"
        fill="#D36C80" p-id="9414"></path>
</svg>