<svg t="1710995542891" class="icon" viewBox="0 0 1024 1024" version="1.1"
    xmlns="http://www.w3.org/2000/svg" p-id="10273" xmlns:xlink="http://www.w3.org/1999/xlink"
    width="200" height="200">
    <path
        d="M748.370053 973.16319C658.932735 679.297719 595.048937 485.516865 288.406707 255.535192c-4.25892-4.25892-12.77676-2.12946-14.90622 4.25892-2.12946 4.25892 0 8.51784 2.12946 10.6473 266.182492 247.017352 357.749269 428.021447 396.079548 732.534217 0 8.51784 8.51784 12.77676 17.03568 8.51784l53.236498-25.553519c6.38838 0 8.51784-6.38838 6.38838-12.77676z"
        fill="#648C3E" p-id="10274"></path>
    <path
        d="M773.923572 125.638136c-6.38838-38.330279-25.553519-68.142718-55.365958-91.566777C695.133554 14.90622 669.580035 4.25892 639.767596 0h-12.77676s2.12946 0 2.12946 2.12946c19.165139 14.90622 27.682979 38.330279 19.16514 61.754338-21.294599 57.495418-161.838955 76.660558-217.204914 153.321115-21.294599 31.941899-29.812439 66.013258-17.035679 102.214077 14.90622 42.589199 51.107038 61.754338 74.531098 57.495418l21.294599 4.25892c25.553519 34.071359 83.048937 34.071359 123.508676 23.42406 121.379216-40.459739 155.450575-195.910314 140.544356-278.959252z"
        fill="#88C057" p-id="10275"></path>
    <path
        d="M658.932735 189.521934c23.424059-31.941899 38.330279-59.624878 68.142718-78.790017-10.6473 2.12946-21.294599 6.38838-31.941899 14.906219 0-4.25892 2.12946-6.38838 2.12946-8.51784 8.51784-27.682979 0-48.977578 10.6473-63.883798-2.12946 2.12946-6.38838 4.25892-8.51784 8.51784-4.25892-8.51784-10.6473-17.035679-14.906219-23.424059H682.356795c2.12946 6.38838 6.38838 12.77676 8.517839 19.165139-6.38838-6.38838-12.77676-10.6473-17.035679-14.906219 21.294599 21.294599 27.682979 51.107038 14.90622 78.790017-6.38838-8.51784-10.6473-19.165139-17.03568-27.682979h-2.12946c8.51784 21.294599 10.6473 42.589199 0 61.754338-4.25892 4.25892-21.294599 31.941899-27.682979 36.200819-2.12946-17.035679-8.51784-31.941899-17.035679-44.718659h-2.12946c0 2.12946 2.12946 6.38838 2.12946 8.51784 4.25892 12.77676 4.25892 23.424059 2.129459 36.200819-6.38838 25.553519-25.553519 44.718659-44.718658 61.754338 0-23.424059-10.6473-46.848119-21.2946-63.883798 29.812439 61.754338-14.90622 102.214077-36.200818 123.508676-10.6473-25.553519-8.51784-29.812439-27.68298-59.624878 8.51784 21.294599 23.424059 51.107038 2.12946 95.825697-2.12946 4.25892-10.6473 25.553519-14.906219 25.553519 4.25892 19.165139-12.77676 63.883798-12.77676 63.883798l19.16514 27.68298c21.294599-29.812439 14.90622-87.307857 14.906219-87.307858-2.12946-2.12946-2.12946-4.25892 0-6.388379 14.90622-36.200819 66.013258-51.107038 108.602457-48.977579h8.51784c-27.682979-4.25892-55.365958-6.38838-85.178398 0 36.200819-46.848119 83.048937-72.401638 142.673816-72.401638-25.553519-2.12946-51.107038-2.12946-78.790018 2.12946 25.553519-27.682979 51.107038-61.754338 108.602457-70.272178 2.12946 0 2.12946 0 2.12946-2.12946-31.941899 4.25892-17.035679 2.12946-53.236499 8.51784z"
        fill="#648C3E" p-id="10276"></path>
    <path
        d="M948.539287 330.06629l-12.77676-6.38838v2.12946c14.90622 29.812439 0 72.401638-46.848119 78.790018-66.013258 8.51784-159.709495-17.035679-227.852213 14.906219-91.566777 44.718659-72.401638 151.191655-25.553519 166.097875l17.03568 12.77676c6.38838 42.589199 55.365958 70.272178 95.825697 78.790017 102.214077 19.165139 191.651394-51.107038 242.758432-140.544356 44.718659-76.660558 19.165139-161.838955-42.589198-206.557613z"
        fill="#88C057" p-id="10277"></path>
    <path
        d="M876.137649 504.682004c36.200819-17.035679 61.754338-34.071359 97.955157-36.200818-10.6473-2.12946-21.294599-4.25892-34.071359-2.12946 10.6473-10.6473 19.165139-19.165139 25.553519-31.941899 4.25892-10.6473 10.6473-19.165139 21.294599-23.42406-4.25892 0-8.51784 2.12946-10.647299 2.12946 0-8.51784 0-19.165139-2.12946-27.682979h-2.12946v21.294599c-2.12946-8.51784-6.38838-14.90622-8.51784-21.294599h-2.12946c8.51784 29.812439-2.12946 57.495418-25.553519 74.531098 0-10.6473-2.12946-21.294599-2.12946-31.941899h-2.12946c-2.12946 21.294599-10.6473 42.589199-29.812439 53.236498-6.38838 2.12946-34.071359 17.035679-40.459739 19.16514 4.25892-14.90622 6.38838-31.941899 6.38838-48.977579h-2.12946c0 2.12946 0 6.38838-2.12946 8.51784-6.38838 42.589199-55.365958 57.495418-85.178397 66.013258 6.38838-10.6473 8.51784-21.294599 10.647299-31.941899 2.12946-10.6473 2.12946-21.294599 0-34.071359 0 12.77676-4.25892 25.553519-10.647299 38.330279-19.165139 36.200819-48.977578 42.589199-80.919478 53.236498 2.12946-10.6473 4.25892-21.294599 4.25892-31.941899s0-21.294599-2.12946-34.071359c-2.12946 8.51784-2.12946 17.035679-4.25892 25.553519-8.51784 36.200819-29.812439 53.236498-59.624878 74.531098-2.12946 0-4.25892 2.12946-4.25892 0-6.38838 19.165139-42.589199 48.977578-42.589198 48.977578l4.25892 34.071359c34.071359-14.90622 55.365958-70.272178 55.365958-70.272177-2.12946-17.035679 59.624878-36.200819 121.379216 0 2.12946 2.12946 4.25892 2.12946 6.38838 4.258919-23.424059-17.035679-46.848119-31.941899-74.531098-40.459738 53.236498-23.424059 106.472997-23.424059 159.709495 4.25892-21.294599-14.90622-44.718659-25.553519-70.272178-36.200819 29.812439-10.6473 72.401638-29.812439 127.767596-8.51784h4.25892c-27.682979-12.77676-14.90622-6.38838-46.848118-17.03568z"
        fill="#648C3E" p-id="10278"></path>
    <path
        d="M43.518814 464.222266C-3.329304 521.717684 3.059076 596.248782 37.130435 647.35582c2.12946 4.25892 6.38838 6.38838 8.517839 10.6473v-2.12946C43.518814 619.672841 71.201794 587.730942 118.049912 596.248782c61.754338 12.77676 144.803276 72.401638 219.334373 63.883798 100.084617-10.6473 123.508676-114.990836 83.048938-146.932736l-10.6473-19.165139c8.51784-42.589199-27.682979-85.178397-63.883798-106.472997-108.602457-66.013258-249.146812 8.51784-302.383311 76.660558z"
        fill="#88C057" p-id="10279"></path>
    <path
        d="M167.027491 508.940924c-17.035679 2.12946-36.200819 4.25892-53.236499 6.38838-17.035679 0-34.071359 0-51.107038-6.38838 8.51784 6.38838 19.165139 10.6473 31.941899 14.90622-2.12946 2.12946-6.38838 2.12946-8.51784 4.25892-10.6473 4.25892-19.165139 10.6473-25.553519 17.035679-8.51784 8.51784-17.035679 14.90622-27.682979 14.90622v2.12946c4.25892 0 8.51784 2.12946 12.776759 2.12946-2.12946 8.51784-6.38838 17.035679-8.517839 27.682979h2.12946c-2.12946-10.6473 0-17.035679 4.258919-23.42406v23.42406h2.12946c0-14.90622 6.38838-27.682979 14.90622-38.330279 8.51784-10.6473 21.294599-19.165139 34.071359-23.424059-4.25892 10.6473-6.38838 21.294599-10.6473 29.812439H86.108013c4.25892-8.51784 8.51784-17.035679 17.03568-23.42406 8.51784-8.51784 19.165139-14.90622 29.812439-17.035679 12.77676-2.12946 27.682979-2.12946 40.459738-4.25892h4.25892c-10.6473 12.77676-17.035679 27.682979-23.424059 42.589199h2.12946c2.12946-2.12946 2.12946-4.25892 4.25892-8.51784 6.38838-10.6473 14.90622-19.165139 25.553519-25.553519 23.424059-12.77676 48.977578-10.6473 76.660558-8.51784-8.51784 8.51784-14.90622 17.035679-21.2946 27.682979-6.38838 10.6473-10.6473 19.165139-12.776759 31.941899 4.25892-12.77676 12.77676-23.424059 23.424059-31.941899 17.035679-17.035679 38.330279-23.424059 63.883798-23.424059h31.941899c-4.25892 10.6473-10.6473 19.165139-14.906219 29.812439-4.25892 10.6473-8.51784 21.294599-10.6473 31.941899 4.25892-8.51784 8.51784-17.035679 12.776759-23.424059 14.90622-21.294599 34.071359-36.200819 59.624879-42.589199 4.25892-2.12946 25.553519-8.51784 29.812439-6.38838 12.77676-14.90622 57.495418-31.941899 57.495418-31.941899l8.51784-34.071359c-38.330279 2.12946-76.660558 46.848119-76.660558 46.848119-2.12946 12.77676-34.071359 8.51784-46.848119 4.25892-27.682979-8.51784-48.977578-25.553519-66.013258-46.848119-2.12946-2.12946-4.25892-4.25892-4.258919-6.38838 14.90622 23.424059 31.941899 46.848119 55.365958 63.883798-59.624878 4.25892-108.602457-14.90622-146.932736-59.624878 14.90622 21.294599 31.941899 40.459739 53.236499 57.495419h-19.16514c-21.294599 0-40.459739-2.12946-59.624878-8.51784-17.035679-6.38838-31.941899-14.90622-44.718658-25.553519l-2.12946-2.12946 19.165139 19.165139c0 10.6473 6.38838 17.035679 14.90622 23.424059z"
        fill="#648C3E" p-id="10280"></path>
    <path
        d="M250.076428 753.828817c-59.624878 44.718659-72.401638 117.120296-53.236498 174.615714l6.38838 12.77676v-2.12946c6.38838-34.071359 42.589199-57.495418 85.178397-36.200819 59.624878 29.812439 119.249756 106.472997 195.910314 119.249757 76.660558 12.77676 127.767596-42.589199 125.638136-95.825698 0-8.51784-2.12946-17.035679-8.51784-25.553519l-6.38838-21.294599c19.165139-38.330279-4.25892-89.437317-34.071359-119.249756-89.437317-93.696237-242.758433-59.624878-310.90115-6.38838z"
        fill="#88C057" p-id="10281"></path>
    <path
        d="M356.549425 828.359914c-17.035679-2.12946-36.200819-4.25892-53.236499-8.517839s-34.071359-10.6473-48.977578-19.16514c6.38838 8.51784 17.035679 14.90622 27.682979 21.2946-4.25892 0-6.38838 2.12946-8.51784 2.12946-10.6473 2.12946-21.294599 4.25892-29.812439 10.647299-10.6473 6.38838-19.165139 8.51784-31.941899 8.51784v2.12946c4.25892 2.12946 6.38838 4.25892 10.6473 4.25892-4.25892 8.51784-10.6473 14.90622-14.90622 23.424059 4.25892-4.25892 8.51784-10.6473 12.77676-17.035679-2.12946 8.51784-4.25892 14.90622-4.25892 23.424059h2.12946c4.25892-14.90622 12.77676-25.553519 23.424059-34.071359 12.77676-8.51784 25.553519-12.77676 40.459739-12.77676-6.38838 8.51784-10.6473 19.165139-17.035679 27.68298 6.38838-6.38838 12.77676-12.77676 21.294599-19.16514 10.6473-6.38838 21.294599-8.51784 34.071359-8.51784 12.77676 2.12946 27.682979 4.25892 40.459739 6.38838 0 0 2.12946 0 2.12946 2.12946-12.77676 10.6473-23.424059 21.294599-31.941899 36.200819l6.388379-6.38838c8.51784-8.51784 19.165139-14.90622 31.941899-17.035679 25.553519-6.38838 51.107038 4.25892 76.660558 12.776759-10.6473 6.38838-19.165139 12.77676-27.682979 21.2946s-14.90622 17.035679-19.16514 27.682979c8.51784-10.6473 19.165139-19.165139 29.81244-25.553519 21.294599-10.6473 44.718659-12.77676 66.013258-6.38838 10.6473 2.12946 19.165139 6.38838 29.812439 8.51784L501.3527 915.667772c-6.38838 8.51784-12.77676 19.165139-19.165139 27.682979 6.38838-6.38838 10.6473-12.77676 17.035679-19.165139 19.165139-17.035679 42.589199-25.553519 68.142718-25.55352h25.55352c2.12946 0 4.25892 2.12946 4.258919 2.12946 14.90622-12.77676 63.883798-14.90622 63.883798-14.906219l17.03568-29.812439c-36.200819-6.38838-85.178397 25.553519-85.178397 25.553519-2.12946 2.12946-2.12946 4.25892-6.38838 4.25892-14.90622 0-27.682979-4.25892-40.459739-12.77676-23.424059-14.90622-40.459739-36.200819-51.107038-61.754338-2.12946-2.12946-2.12946-4.25892-4.25892-6.38838 8.51784 27.682979 19.165139 53.236498 36.200819 76.660558-57.495418-10.6473-100.084617-42.589199-127.767597-95.825697 8.51784 23.424059 21.294599 46.848119 36.200819 70.272178-4.25892 0-6.38838-2.12946-8.517839-2.12946-2.12946 0-6.38838-2.12946-8.51784-2.12946-19.165139-4.25892-38.330279-12.77676-55.365958-23.42406-14.90622-10.6473-27.682979-23.424059-36.200819-36.200818l-2.12946-2.12946c4.25892 8.51784 8.51784 14.90622 14.906219 23.424059 6.38838 0 10.6473 6.38838 17.03568 14.906219z"
        fill="#648C3E" p-id="10282"></path>
</svg>