<svg width="62" height="223" viewBox="0 0 62 223" fill="none" xmlns="http://www.w3.org/2000/svg">
<path d="M55.4144 51.5082C47.6621 65.2965 35.3158 72.7651 27.8507 68.7435C20.3855 64.722 20.9598 50.0719 28.9992 36.2837C36.7515 22.4954 49.0977 15.0267 56.5629 19.0483C63.7409 23.3571 63.1667 38.0072 55.4144 51.5082Z" fill="url(#paint0_linear_307_8)"/>
<path d="M29.5734 56.966C37.9778 56.966 44.7909 44.2338 44.7909 28.5277C44.7909 12.8216 37.9778 0.0893555 29.5734 0.0893555C21.169 0.0893555 14.356 12.8216 14.356 28.5277C14.356 44.2338 21.169 56.966 29.5734 56.966Z" fill="url(#paint1_linear_307_8)"/>
<path d="M6.31644 51.5082C14.0687 65.2965 26.415 72.7651 33.8801 68.7435C41.3453 64.722 40.771 50.0719 32.7316 36.2837C24.9794 22.4954 12.6331 15.0267 5.16795 19.0483C-2.01009 23.3571 -1.72297 38.0072 6.31644 51.5082Z" fill="url(#paint2_linear_307_8)"/>
<path d="M55.4144 75.3505C47.6621 89.1388 35.3158 96.6074 27.8507 92.5859C20.3855 88.5643 20.9598 73.9142 28.9992 60.1259C37.0386 46.3376 49.0977 38.869 56.5629 42.8906C64.028 46.9122 63.1667 61.5622 55.4144 75.3505Z" fill="url(#paint3_linear_307_8)"/>
<path d="M6.31655 75.3505C14.0688 89.1388 26.4151 96.6074 33.8802 92.5859C41.3454 88.5643 40.7712 73.9142 32.7317 60.1259C24.6923 46.3376 12.6332 38.869 5.16806 42.8906C-2.2971 46.9122 -1.72286 61.5622 6.31655 75.3505Z" fill="url(#paint4_linear_307_8)"/>
<path d="M55.4143 101.204C47.662 114.992 35.3157 122.46 27.8506 118.439C20.6725 114.13 20.9596 99.7672 28.9991 85.979C37.0385 72.1907 49.0976 64.722 56.5627 68.7436C64.0279 72.7652 63.1665 87.4152 55.4143 101.204Z" fill="url(#paint5_linear_307_8)"/>
<path d="M6.31655 101.204C14.0688 114.992 26.4151 122.46 33.8802 118.439C41.0583 114.13 40.7712 99.7672 32.7317 85.979C24.6923 72.1907 12.6332 64.722 5.16806 68.7436C-2.2971 72.7652 -1.72286 87.4152 6.31655 101.204Z" fill="url(#paint6_linear_307_8)"/>
<path d="M55.4144 127.057C47.6621 140.845 35.3158 148.313 27.8507 144.292C20.3855 140.27 20.9598 125.62 28.9992 111.832C36.7515 98.0437 49.0977 90.575 56.5629 94.5966C63.7409 98.9055 63.1667 113.268 55.4144 127.057Z" fill="url(#paint7_linear_307_8)"/>
<path d="M6.31644 127.057C14.0687 140.845 26.415 148.313 33.8801 144.292C41.3453 140.27 40.771 125.62 32.7316 111.832C24.9794 98.0437 12.6331 90.575 5.16795 94.5966C-2.01009 98.9055 -1.72297 113.268 6.31644 127.057Z" fill="url(#paint8_linear_307_8)"/>
<path d="M55.4144 152.91C47.6621 166.698 35.3158 174.167 27.8507 170.145C20.3855 166.123 20.9598 151.473 28.9992 137.685C37.0386 123.897 49.0977 116.428 56.5629 120.45C64.028 124.471 63.1667 139.121 55.4144 152.91Z" fill="url(#paint9_linear_307_8)"/>
<path d="M6.31655 152.91C14.0688 166.698 26.4151 174.167 33.8802 170.145C41.3454 166.123 40.7712 151.473 32.7317 137.685C24.6923 123.897 12.6332 116.428 5.16806 120.45C-2.2971 124.471 -1.72286 139.121 6.31655 152.91Z" fill="url(#paint10_linear_307_8)"/>
<path d="M55.4143 178.763C47.662 192.551 35.3157 200.02 27.8506 195.998C20.6725 191.689 20.9596 177.326 28.9991 163.538C37.0385 149.75 49.0976 142.281 56.5627 146.303C64.0279 150.324 63.1665 164.974 55.4143 178.763Z" fill="url(#paint11_linear_307_8)"/>
<path d="M6.31655 178.763C14.0688 192.551 26.4151 200.02 33.8802 195.998C41.0583 191.689 40.7712 177.326 32.7317 163.538C24.6923 149.75 12.6332 142.281 5.16806 146.303C-2.2971 150.324 -1.72286 164.974 6.31655 178.763Z" fill="url(#paint12_linear_307_8)"/>
<path d="M55.4144 204.616C47.6621 218.404 35.3158 225.873 27.8507 221.851C20.3855 217.829 20.9598 203.179 28.9992 189.391C36.7515 175.603 49.0977 168.134 56.5629 172.156C63.7409 176.465 63.1667 190.827 55.4144 204.616Z" fill="url(#paint13_linear_307_8)"/>
<path d="M6.31644 204.616C14.0687 218.404 26.415 225.873 33.8801 221.851C41.3453 217.829 40.771 203.179 32.7316 189.391C24.9794 175.603 12.6331 168.134 5.16795 172.156C-2.01009 176.465 -1.72297 190.827 6.31644 204.616Z" fill="url(#paint14_linear_307_8)"/>
<defs>
<linearGradient id="paint0_linear_307_8" x1="22.8034" y1="43.9203" x2="61.6343" y2="43.9203" gradientUnits="userSpaceOnUse">
<stop stop-color="#C1DB85"/>
<stop offset="0.9957" stop-color="#13AE67"/>
</linearGradient>
<linearGradient id="paint1_linear_307_8" x1="14.4834" y1="28.3844" x2="44.9083" y2="28.3844" gradientUnits="userSpaceOnUse">
<stop stop-color="#C1DB85"/>
<stop offset="0.9957" stop-color="#13AE67"/>
</linearGradient>
<linearGradient id="paint2_linear_307_8" x1="-0.000240221" y1="43.9203" x2="38.8307" y2="43.9203" gradientUnits="userSpaceOnUse">
<stop stop-color="#C1DB85"/>
<stop offset="0.9957" stop-color="#13AE67"/>
</linearGradient>
<linearGradient id="paint3_linear_307_8" x1="22.8034" y1="67.6756" x2="61.6343" y2="67.6756" gradientUnits="userSpaceOnUse">
<stop stop-color="#C1DB85"/>
<stop offset="0.9957" stop-color="#13AE67"/>
</linearGradient>
<linearGradient id="paint4_linear_307_8" x1="-0.000130499" y1="67.6756" x2="38.8308" y2="67.6756" gradientUnits="userSpaceOnUse">
<stop stop-color="#C1DB85"/>
<stop offset="0.9957" stop-color="#13AE67"/>
</linearGradient>
<linearGradient id="paint5_linear_307_8" x1="22.8033" y1="93.541" x2="61.6342" y2="93.541" gradientUnits="userSpaceOnUse">
<stop stop-color="#C1DB85"/>
<stop offset="0.9957" stop-color="#13AE67"/>
</linearGradient>
<linearGradient id="paint6_linear_307_8" x1="-0.000130485" y1="93.541" x2="38.8308" y2="93.541" gradientUnits="userSpaceOnUse">
<stop stop-color="#C1DB85"/>
<stop offset="0.9957" stop-color="#13AE67"/>
</linearGradient>
<linearGradient id="paint7_linear_307_8" x1="22.8034" y1="119.406" x2="61.6343" y2="119.406" gradientUnits="userSpaceOnUse">
<stop stop-color="#C1DB85"/>
<stop offset="0.9957" stop-color="#13AE67"/>
</linearGradient>
<linearGradient id="paint8_linear_307_8" x1="-0.000240221" y1="119.406" x2="38.8307" y2="119.406" gradientUnits="userSpaceOnUse">
<stop stop-color="#C1DB85"/>
<stop offset="0.9957" stop-color="#13AE67"/>
</linearGradient>
<linearGradient id="paint9_linear_307_8" x1="22.8034" y1="145.272" x2="61.6343" y2="145.272" gradientUnits="userSpaceOnUse">
<stop stop-color="#C1DB85"/>
<stop offset="0.9957" stop-color="#13AE67"/>
</linearGradient>
<linearGradient id="paint10_linear_307_8" x1="-0.000130499" y1="145.272" x2="38.8308" y2="145.272" gradientUnits="userSpaceOnUse">
<stop stop-color="#C1DB85"/>
<stop offset="0.9957" stop-color="#13AE67"/>
</linearGradient>
<linearGradient id="paint11_linear_307_8" x1="22.8033" y1="171.137" x2="61.6342" y2="171.137" gradientUnits="userSpaceOnUse">
<stop stop-color="#C1DB85"/>
<stop offset="0.9957" stop-color="#13AE67"/>
</linearGradient>
<linearGradient id="paint12_linear_307_8" x1="-0.000130485" y1="171.137" x2="38.8308" y2="171.137" gradientUnits="userSpaceOnUse">
<stop stop-color="#C1DB85"/>
<stop offset="0.9957" stop-color="#13AE67"/>
</linearGradient>
<linearGradient id="paint13_linear_307_8" x1="22.8034" y1="197.002" x2="61.6343" y2="197.002" gradientUnits="userSpaceOnUse">
<stop stop-color="#C1DB85"/>
<stop offset="0.9957" stop-color="#13AE67"/>
</linearGradient>
<linearGradient id="paint14_linear_307_8" x1="-0.000240221" y1="197.002" x2="38.8307" y2="197.002" gradientUnits="userSpaceOnUse">
<stop stop-color="#C1DB85"/>
<stop offset="0.9957" stop-color="#13AE67"/>
</linearGradient>
</defs>
</svg>
