<svg width="105" height="201" viewBox="0 0 105 201" fill="none" xmlns="http://www.w3.org/2000/svg">
<path d="M103.689 114.796C95.6495 59.9306 60.3335 0.468628 52.2941 0.468628C44.2547 0.468628 8.93876 59.9306 0.899348 114.796C-7.14006 169.662 43.3934 200.686 52.2941 200.111C61.1949 200.686 111.728 169.662 103.689 114.796Z" fill="url(#paint0_linear_307_140)"/>
<path d="M51.4326 200.111L52.2939 30.3433L53.4424 200.111H51.4326Z" fill="#22AC38"/>
<path d="M51.7202 184.887L92.7786 155.012L52.8687 186.323L51.7202 184.887Z" fill="#22AC38"/>
<path d="M51.7198 166.79L6.06738 132.032L52.8683 165.354L51.7198 166.79Z" fill="#22AC38"/>
<path d="M51.7202 144.671L95.0755 115.371L52.8687 146.395L51.7202 144.671Z" fill="#22AC38"/>
<path d="M51.7198 127.149L17.5522 100.434L52.8683 125.712L51.7198 127.149Z" fill="#22AC38"/>
<path d="M52.0068 105.892L83.5902 84.9219L52.8683 107.328L52.0068 105.892Z" fill="#22AC38"/>
<path d="M51.7198 83.7729L29.3242 65.963L52.8682 82.0493L51.7198 83.7729Z" fill="#22AC38"/>
<path d="M52.0068 59.6433L72.6796 49.8766L52.8683 61.3668L52.0068 59.6433Z" fill="#22AC38"/>
<path d="M52.0068 44.1315L40.8091 35.5138L52.8682 42.6952L52.0068 44.1315Z" fill="#22AC38"/>
<defs>
<linearGradient id="paint0_linear_307_140" x1="0.240978" y1="100.362" x2="104.603" y2="100.362" gradientUnits="userSpaceOnUse">
<stop stop-color="#C1DB85"/>
<stop offset="0.9957" stop-color="#13AE67"/>
</linearGradient>
</defs>
</svg>
