<svg width="62" height="210" viewBox="0 0 62 210" fill="none" xmlns="http://www.w3.org/2000/svg">
<path d="M31.1068 0.734375C-36.9411 194.632 31.1068 209.569 31.1068 209.569C31.1068 209.569 99.1546 194.919 31.1068 0.734375Z" fill="url(#paint0_linear_307_120)"/>
<path d="M29.9585 209.569L31.107 37.5032L31.9683 209.569H29.9585Z" fill="#22AC38"/>
<path d="M30.2455 195.781L9.85986 163.896L31.9682 194.632L30.2455 195.781Z" fill="#22AC38"/>
<path d="M30.5327 173.088L54.3638 154.703L31.6812 174.524L30.5327 173.088Z" fill="#22AC38"/>
<path d="M30.2455 155.278L9.85986 128.85L31.6811 154.129L30.2455 155.278Z" fill="#22AC38"/>
<path d="M30.5327 135.457L54.3638 119.371L31.6812 136.894L30.5327 135.457Z" fill="#22AC38"/>
<path d="M30.2453 116.211L13.8794 91.7944L31.6809 115.062L30.2453 116.211Z" fill="#22AC38"/>
<path d="M30.5327 90.9327L47.76 78.5807L31.6812 92.6562L30.5327 90.9327Z" fill="#22AC38"/>
<path d="M30.2455 69.9631L20.4834 57.8983L31.6811 68.5268L30.2455 69.9631Z" fill="#22AC38"/>
<path d="M30.2456 54.4512L39.4335 46.6953L31.6812 55.8875L30.2456 54.4512Z" fill="#22AC38"/>
<defs>
<linearGradient id="paint0_linear_307_120" x1="0.772646" y1="105.157" x2="61.2873" y2="105.157" gradientUnits="userSpaceOnUse">
<stop stop-color="#C1DB85"/>
<stop offset="0.9957" stop-color="#13AE67"/>
</linearGradient>
</defs>
</svg>
