<svg width="98" height="214" viewBox="0 0 98 214" fill="none" xmlns="http://www.w3.org/2000/svg">
<path d="M95.7845 89.7133C82.5769 -10.8263 48.9837 0.376718 48.9837 0.376718C48.9837 0.376718 15.3904 -10.8263 2.18285 89.7133C-11.0248 190.253 48.9837 213.521 48.9837 213.521C48.9837 213.521 108.992 190.253 95.7845 89.7133Z" fill="url(#paint0_linear_307_24)"/>
<path d="M48.1226 213.521L48.9839 58.4023L49.8453 213.521H48.1226Z" fill="#22AC38"/>
<path d="M48.4097 164.974L84.2999 126.195L49.8453 166.123L48.4097 164.974Z" fill="#22AC38"/>
<path d="M48.4096 132.802L14.8164 100.342L49.5581 131.365L48.4096 132.802Z" fill="#22AC38"/>
<path d="M48.1226 95.4583L72.5279 58.4023L49.8453 96.3201L48.1226 95.4583Z" fill="#22AC38"/>
<defs>
<linearGradient id="paint0_linear_307_24" x1="0.398961" y1="106.699" x2="97.6158" y2="106.699" gradientUnits="userSpaceOnUse">
<stop stop-color="#C1DB85"/>
<stop offset="0.9957" stop-color="#13AE67"/>
</linearGradient>
</defs>
</svg>
