<svg width="157" height="206" viewBox="0 0 157 206" fill="none" xmlns="http://www.w3.org/2000/svg">
<path d="M111.026 36.4847C100.403 24.7072 78.5813 0.00317383 78.5813 0.00317383C78.5813 0.00317383 56.7601 24.7072 46.1366 36.4847C17.9987 67.5083 -11.0007 117.778 5.36527 160.579C21.7312 203.38 28.6221 207.402 46.9979 204.242C65.3737 201.082 58.4828 168.622 78.5813 168.622C98.6798 168.622 92.076 201.082 110.165 204.242C128.54 207.402 135.431 203.093 151.797 160.579C167.876 117.778 138.877 67.5083 111.026 36.4847Z" fill="url(#paint0_linear_307_58)"/>
<path d="M77.4326 168.622L78.2939 26.718L79.4424 168.622H77.4326Z" fill="#22AC38"/>
<path d="M78.2939 160.005L148.352 145.642L78.5811 162.015L78.2939 160.005Z" fill="#22AC38"/>
<path d="M77.7202 149.376L136.293 104.852L78.8687 150.813L77.7202 149.376Z" fill="#22AC38"/>
<path d="M77.4326 130.704L109.59 55.7307L79.1554 131.566L77.4326 130.704Z" fill="#22AC38"/>
<path d="M77.4326 104.852L91.7887 38.7827L79.4424 105.139L77.4326 104.852Z" fill="#22AC38"/>
<path d="M78.294 162.015L8.52344 145.642L78.5811 160.005L78.294 162.015Z" fill="#22AC38"/>
<path d="M77.7198 150.813L20.5825 104.852L78.8683 149.376L77.7198 150.813Z" fill="#22AC38"/>
<path d="M77.4329 131.566L47.2852 55.7307L79.1557 130.704L77.4329 131.566Z" fill="#22AC38"/>
<path d="M77.4327 105.139L65.0864 38.7827L79.4425 104.852L77.4327 105.139Z" fill="#22AC38"/>
<defs>
<linearGradient id="paint0_linear_307_58" x1="0.452048" y1="102.453" x2="156.392" y2="102.453" gradientUnits="userSpaceOnUse">
<stop stop-color="#BDDA84"/>
<stop offset="0.9957" stop-color="#64BB70"/>
</linearGradient>
</defs>
</svg>
