<svg width="178" height="216" viewBox="0 0 178 216" fill="none" xmlns="http://www.w3.org/2000/svg">
<path d="M88.5822 0.173766C80.5427 0.173766 1.29713 -2.98603 0.148645 104.735C-0.999842 212.456 88.5822 215.328 88.5822 215.328C88.5822 215.328 177.877 212.169 177.016 104.735C175.867 -2.98603 96.6216 0.173766 88.5822 0.173766Z" fill="url(#paint0_linear_307_34)"/>
<path d="M87.7207 215.329L88.5821 20.2817L89.7305 215.329H87.7207Z" fill="#22AC38"/>
<path d="M88.0078 188.039L150.313 149.834L89.1563 189.763L88.0078 188.039Z" fill="#22AC38"/>
<path d="M88.0078 142.365L160.65 100.713L89.1563 143.802L88.0078 142.365Z" fill="#22AC38"/>
<path d="M88.2949 96.979L144.284 66.2427L89.1563 98.7026L88.2949 96.979Z" fill="#22AC38"/>
<path d="M88.0078 52.7415L119.591 33.4954L89.1563 54.4651L88.0078 52.7415Z" fill="#22AC38"/>
<path d="M88.5822 171.091L27.4253 131.45L89.7307 169.655L88.5822 171.091Z" fill="#22AC38"/>
<path d="M88.5822 125.417L17.0889 82.0417L89.7307 123.694L88.5822 125.417Z" fill="#22AC38"/>
<path d="M88.582 80.0308L33.7417 47.8582L89.7304 78.3073L88.582 80.0308Z" fill="#22AC38"/>
<path d="M88.5824 35.7934L58.1475 14.8237L89.7309 34.3571L88.5824 35.7934Z" fill="#22AC38"/>
<defs>
<linearGradient id="paint0_linear_307_34" x1="0.278424" y1="107.721" x2="176.975" y2="107.721" gradientUnits="userSpaceOnUse">
<stop stop-color="#C1DB85"/>
<stop offset="0.9957" stop-color="#13AE67"/>
</linearGradient>
</defs>
</svg>
